<?xml version="1.0" encoding="UTF-8" standalone="no"?>
<svg
   xmlns:dc="http://purl.org/dc/elements/1.1/"
   xmlns:cc="http://creativecommons.org/ns#"
   xmlns:rdf="http://www.w3.org/1999/02/22-rdf-syntax-ns#"
   xmlns:svg="http://www.w3.org/2000/svg"
   xmlns="http://www.w3.org/2000/svg"
   viewBox="0 0 700.90668 700.90668"
   height="400.90668"
   width="400.90668"
   xml:space="preserve"
   id="svg2"
   version="1.1"><metadata
     id="metadata8"><rdf:RDF><cc:Work
         rdf:about=""><dc:format>image/svg+xml</dc:format><dc:type
           rdf:resource="http://purl.org/dc/dcmitype/StillImage" /></cc:Work></rdf:RDF></metadata><defs
     id="defs6"><clipPath
       id="clipPath18"
       clipPathUnits="userSpaceOnUse"><path
         id="path16"
         d="M 0,566.93 H 566.93 V 0 H 0 Z" /></clipPath><linearGradient
       id="linearGradient114"
       spreadMethod="pad"
       gradientTransform="matrix(0,132.04482,132.04482,0,158.9209,226.58791)"
       gradientUnits="userSpaceOnUse"
       y2="0"
       x2="1"
       y1="0"
       x1="0"><stop
         id="stop108"
         offset="0"
         style="stop-opacity:1;stop-color:#00adef" /><stop
         id="stop110"
         offset="0.145161"
         style="stop-opacity:1;stop-color:#00adef" /><stop
         id="stop112"
         offset="1"
         style="stop-opacity:1;stop-color:#80cc28" /></linearGradient><linearGradient
       id="linearGradient134"
       spreadMethod="pad"
       gradientTransform="matrix(0,115.3613,115.3613,0,119.5449,250.85451)"
       gradientUnits="userSpaceOnUse"
       y2="0"
       x2="1"
       y1="0"
       x1="0"><stop
         id="stop130"
         offset="0"
         style="stop-opacity:1;stop-color:#f25c19" /><stop
         id="stop132"
         offset="1"
         style="stop-opacity:1;stop-color:#fab20b" /></linearGradient><clipPath
       id="clipPath144"
       clipPathUnits="userSpaceOnUse"><path
         id="path142"
         d="M 0,566.93 H 566.93 V 0 H 0 Z" /></clipPath></defs><g
     transform="matrix(1.3333333,0,0,-1.3333333,0,755.90667)"
     id="g10"><g
       id="g12"><g
         clip-path="url(#clipPath18)"
         id="g14"><g
           transform="translate(83.4126,192.1046)"
           id="g20"><path
             id="path22"
             style="fill:#80cc28;fill-opacity:1;fill-rule:nonzero;stroke:none"
             d="M 0,0 1.742,6.408 C 1.975,7.248 1.992,7.822 1.779,8.129 1.572,8.432 1.049,8.582 0.205,8.582 H -1.388 L -4.313,-2.174 h 1.595 c 0.836,0 1.445,0.161 1.817,0.466 C -0.527,-1.409 -0.23,-0.835 0,0 m -5.818,-7.698 -2.345,-8.578 h -7.156 l 8.233,30.179 h 7.197 c 4.396,0 7.159,-0.544 8.283,-1.655 1.129,-1.103 1.285,-3.13 0.482,-6.083 L 7.203,0.046 C 6.414,-2.853 5.173,-4.871 3.469,-6.002 1.769,-7.134 -0.936,-7.698 -4.643,-7.698 Z" /></g><g
           transform="translate(90.1177,175.829)"
           id="g24"><path
             id="path26"
             style="fill:#80cc28;fill-opacity:1;fill-rule:nonzero;stroke:none"
             d="m 0,0 8.23,30.179 h 7.159 L 8.629,5.405 h 6.764 L 13.917,0 Z" /></g><g
           transform="translate(107.0074,175.829)"
           id="g28"><path
             id="path30"
             style="fill:#80cc28;fill-opacity:1;fill-rule:nonzero;stroke:none"
             d="M 0,0 8.228,30.179 H 21.735 L 20.261,24.78 h -6.345 l -1.82,-6.671 h 5.958 L 16.628,12.906 H 10.675 L 8.629,5.405 h 6.953 L 14.103,0 Z" /></g><g
           transform="translate(125.185,175.829)"
           id="g32"><path
             id="path34"
             style="fill:#80cc28;fill-opacity:1;fill-rule:nonzero;stroke:none"
             d="M 0,0 8.226,30.179 H 18.298 L 17.334,6.324 23.428,30.179 h 6.475 L 21.671,0 H 11.639 L 12.678,24.514 6.47,0 Z" /></g><g
           transform="translate(162.4244,188.2676)"
           id="g36"><path
             id="path38"
             style="fill:#80cc28;fill-opacity:1;fill-rule:nonzero;stroke:none"
             d="M 0,0 H 3.244 L 5.558,14.25 Z M -12.034,-12.439 0.764,17.74 H 12.209 L 8.67,-12.439 H 1.342 l 1.175,7.419 h -4.519 l -2.878,-7.419 z" /></g><g
           transform="translate(196.2799,188.2676)"
           id="g40"><path
             id="path42"
             style="fill:#80cc28;fill-opacity:1;fill-rule:nonzero;stroke:none"
             d="M 0,0 H 3.248 L 5.566,14.25 Z M -12.039,-12.439 0.767,17.74 H 12.204 L 8.67,-12.439 H 1.347 l 1.175,7.419 h -4.535 l -2.87,-7.419 z" /></g><g
           transform="translate(210.1751,175.829)"
           id="g44"><path
             id="path46"
             style="fill:#80cc28;fill-opacity:1;fill-rule:nonzero;stroke:none"
             d="M 0,0 6.758,24.78 H 1.915 l 1.478,5.399 H 20.206 L 18.735,24.78 H 13.912 L 7.159,0 Z" /></g><g
           transform="translate(232.6319,175.829)"
           id="g48"><path
             id="path50"
             style="fill:#80cc28;fill-opacity:1;fill-rule:nonzero;stroke:none"
             d="M 0,0 H -7.154 L 1.079,30.179 H 8.226 Z" /></g><g
           transform="translate(240.81,175.829)"
           id="g52"><path
             id="path54"
             style="fill:#80cc28;fill-opacity:1;fill-rule:nonzero;stroke:none"
             d="M 0,0 6.761,24.78 H 1.927 l 1.47,5.399 H 20.213 L 18.737,24.78 H 13.919 L 7.162,0 Z" /></g><g
           transform="translate(264.0752,206.0076)"
           id="g56"><path
             id="path58"
             style="fill:#80cc28;fill-opacity:1;fill-rule:nonzero;stroke:none"
             d="M 0,0 H 7.178 L 0.913,-22.985 c -0.232,-0.835 -0.265,-1.399 -0.094,-1.687 0.176,-0.286 0.644,-0.425 1.422,-0.425 0.753,0 1.303,0.139 1.639,0.425 0.326,0.288 0.605,0.852 0.837,1.687 L 10.984,0 h 6.869 l -5.575,-20.441 c -0.642,-2.357 -1.239,-4.082 -1.784,-5.173 -0.545,-1.089 -1.213,-2.013 -2,-2.775 -0.831,-0.78 -1.829,-1.346 -2.985,-1.666 -1.16,-0.328 -2.805,-0.49 -4.942,-0.49 -2.179,0 -3.745,0.162 -4.712,0.49 -0.965,0.32 -1.634,0.886 -2.028,1.666 -0.365,0.732 -0.522,1.635 -0.465,2.702 0.049,1.065 0.405,2.821 1.065,5.246 z" /></g><g
           transform="translate(291.6815,183.2481)"
           id="g60"><path
             id="path62"
             style="fill:#80cc28;fill-opacity:1;fill-rule:nonzero;stroke:none"
             d="m 0,0 4.179,15.302 c 0.219,0.829 0.246,1.376 0.073,1.65 -0.176,0.27 -0.645,0.409 -1.424,0.409 H 0.932 L -4.36,-2.051 h 1.894 c 0.761,0 1.314,0.136 1.634,0.411 0.326,0.282 0.61,0.829 0.832,1.64 m -12.984,-7.419 8.224,30.178 h 9.065 c 3.64,0 5.926,-0.63 6.851,-1.892 0.92,-1.271 0.874,-3.759 -0.142,-7.471 L 7.896,1.951 c -1.011,-3.707 -2.322,-6.203 -3.937,-7.47 -1.617,-1.266 -4.246,-1.9 -7.883,-1.9 z" /></g><g
           transform="translate(301.7726,175.829)"
           id="g64"><path
             id="path66"
             style="fill:#80cc28;fill-opacity:1;fill-rule:nonzero;stroke:none"
             d="M 0,0 8.232,30.179 H 21.739 L 20.263,24.78 H 13.914 L 12.095,18.109 H 18.06 L 16.632,12.906 H 10.681 L 8.633,5.405 h 6.944 L 14.111,0 Z" /></g><g
           transform="translate(331.1698,175.829)"
           id="g68"><path
             id="path70"
             style="fill:#80cc28;fill-opacity:1;fill-rule:nonzero;stroke:none"
             d="M 0,0 8.234,30.179 H 21.74 L 20.263,24.78 h -6.347 l -1.815,-6.671 h 5.953 L 16.631,12.906 H 10.683 L 8.635,5.405 h 6.948 L 14.111,0 Z" /></g><g
           transform="translate(349.3918,175.829)"
           id="g72"><path
             id="path74"
             style="fill:#80cc28;fill-opacity:1;fill-rule:nonzero;stroke:none"
             d="M 0,0 8.229,30.179 H 18.591 L 16.211,6.363 27.032,30.179 H 37.223 L 29.001,0 H 22.525 L 29.912,25.511 18.201,0 H 10.283 L 12.627,25.511 6.188,0 Z" /></g><g
           transform="translate(403.6724,185.9075)"
           id="g76"><path
             id="path78"
             style="fill:#80cc28;fill-opacity:1;fill-rule:nonzero;stroke:none"
             d="m 0,0 -0.8,-2.919 c -0.213,-0.793 -0.205,-1.348 0.02,-1.669 0.232,-0.322 0.728,-0.49 1.488,-0.49 0.817,0 1.421,0.155 1.806,0.472 0.37,0.306 0.673,0.894 0.911,1.761 l 0.574,2.137 C 4.178,-0.059 4.275,0.417 4.275,0.737 4.279,1.043 4.216,1.32 4.092,1.569 3.767,2.125 2.809,2.588 1.219,2.95 0.493,3.11 -0.074,3.256 -0.463,3.378 c -1.834,0.554 -2.989,1.334 -3.463,2.329 -0.472,0.999 -0.42,2.565 0.165,4.701 l 0.754,2.787 c 0.745,2.708 1.799,4.597 3.161,5.666 1.356,1.074 3.35,1.61 5.983,1.61 h 2.109 c 1.661,0 2.978,-0.141 3.963,-0.418 0.989,-0.278 1.7,-0.722 2.141,-1.33 0.353,-0.469 0.529,-1.081 0.521,-1.807 -0.009,-0.737 -0.233,-1.907 -0.667,-3.519 L 13.559,11.064 H 7.216 l 0.512,1.89 c 0.265,0.944 0.303,1.575 0.136,1.89 -0.172,0.308 -0.648,0.465 -1.436,0.465 -0.765,0 -1.315,-0.148 -1.661,-0.438 C 4.424,14.578 4.134,14.036 3.918,13.237 L 3.382,11.28 C 2.983,9.809 3.981,8.747 6.367,8.112 7.051,7.922 7.589,7.768 7.975,7.65 9.804,7.1 10.944,6.343 11.427,5.371 11.892,4.39 11.835,2.85 11.262,0.737 L 10.156,-3.328 C 9.465,-5.851 8.36,-7.669 6.844,-8.777 5.317,-9.891 3.179,-10.445 0.415,-10.445 H -1.48 c -3.035,0 -4.983,0.508 -5.846,1.525 -0.863,1.018 -0.917,2.893 -0.171,5.633 L -6.6,0 Z" /></g><g
           transform="translate(427.7854,188.2691)"
           id="g80"><path
             id="path82"
             style="fill:#80cc28;fill-opacity:1;fill-rule:nonzero;stroke:none"
             d="M 0,0 H 3.246 L 5.557,14.249 Z M -12.033,-12.44 0.758,17.739 h 11.44 L 8.66,-12.44 H 1.339 l 1.183,7.419 h -4.53 l -2.877,-7.419 z" /></g><g
           transform="translate(462.6871,211.9241)"
           id="g84"><path
             id="path86"
             style="fill:#80cc28;fill-opacity:1;fill-rule:nonzero;stroke:none"
             d="M 0,0 -5.424,-3.511 H -8.365 L -5.338,0 Z m -14.624,-5.917 h 7.178 l -6.26,-22.984 c -0.238,-0.835 -0.265,-1.4 -0.094,-1.688 0.173,-0.285 0.639,-0.425 1.412,-0.425 0.763,0 1.306,0.14 1.639,0.425 0.331,0.288 0.61,0.853 0.84,1.688 l 6.268,22.984 h 6.869 l -5.572,-20.44 c -0.645,-2.357 -1.244,-4.083 -1.791,-5.173 -0.542,-1.089 -1.211,-2.013 -1.992,-2.776 -0.829,-0.779 -1.836,-1.345 -2.983,-1.665 -1.164,-0.329 -2.812,-0.49 -4.948,-0.49 -2.173,0 -3.749,0.161 -4.706,0.49 -0.96,0.32 -1.632,0.886 -2.029,1.665 -0.364,0.733 -0.519,1.636 -0.472,2.703 0.052,1.065 0.407,2.821 1.075,5.246 z" /></g><g
           transform="translate(475.6739,183.2481)"
           id="g88"><path
             id="path90"
             style="fill:#80cc28;fill-opacity:1;fill-rule:nonzero;stroke:none"
             d="m 0,0 4.167,15.302 c 0.23,0.829 0.25,1.376 0.079,1.65 -0.174,0.27 -0.65,0.409 -1.42,0.409 H 0.929 L -4.365,-2.051 h 1.901 c 0.757,0 1.302,0.136 1.632,0.411 0.33,0.282 0.605,0.829 0.832,1.64 m -12.987,-7.419 8.228,30.178 h 9.062 c 3.641,0 5.923,-0.63 6.844,-1.892 0.922,-1.271 0.875,-3.758 -0.133,-7.471 L 7.896,1.951 c -1.017,-3.707 -2.331,-6.203 -3.945,-7.47 -1.613,-1.266 -4.242,-1.9 -7.878,-1.9 z" /></g><g
           transform="translate(485.7652,175.829)"
           id="g92"><path
             id="path94"
             style="fill:#80cc28;fill-opacity:1;fill-rule:nonzero;stroke:none"
             d="M 0,0 8.226,30.179 H 21.734 L 20.255,24.78 h -6.347 l -1.813,-6.671 h 5.951 L 16.627,12.906 H 10.673 L 8.63,5.405 h 6.943 L 14.103,0 Z" /></g></g></g><g
       id="g96"><g
         id="g98"><g
           id="g104"><g
             id="g106"><path
               id="path116"
               style="fill:url(#linearGradient114);stroke:none"
               d="m 172.861,358.391 c -0.853,-8.703 -3.245,-28.403 -11.813,-48.689 v 0 c -9.085,-21.499 -27.527,-48.465 -44.394,-61.904 v 0 c -9.894,-7.885 -14.59,-11.142 -16.78,-12.487 v 0 c 2.28,0.806 6.953,2.686 13.456,6.43 v 0 c 2.194,1.267 4.383,2.6 6.459,3.912 v 0 c 6.244,-5.629 12.495,-11.253 18.776,-16.839 v 0 c 3.338,-2.968 5.562,-2.968 8.929,0 v 0 c 6.352,5.596 12.639,11.26 18.922,16.93 v 0 c -3.539,3.203 -7.309,7.258 -10.447,12.039 v 0 c -7.815,11.906 -8.905,20.447 -8.905,20.447 v 0 c 0,0 3.27,3.816 5.635,6.996 v 0 c 2.363,3.181 5.634,9.362 5.634,9.362 v 0 c 0,0 -1.546,-24.082 6.086,-36.984 v 0 c 7.636,-12.904 15.45,-18.446 15.45,-18.446 v 0 c 0,0 0.1,-0.074 0.248,-0.195 v 0 c -3.803,3.9 -6.068,8.574 -7.406,12.458 v 0 c 4.698,4.239 9.4,8.479 14.123,12.686 v 0 c 10.637,9.471 21.203,19.075 26.715,32.617 v 0 c 6.797,16.702 6.28,32.952 -5.254,47.607 v 0 c -6.474,8.23 -18.203,14.301 -31.019,14.302 v 0 c -1.46,0 -2.932,-0.079 -4.415,-0.242" /></g></g></g></g><g
       id="g118"><g
         id="g120"><g
           id="g126"><g
             id="g128"><path
               id="path136"
               style="fill:url(#linearGradient134);stroke:none"
               d="m 170.996,366.209 c 0,10e-4 0.001,0.003 0.001,0.005 v 0 10e-4 c 0,-0.002 -0.001,-0.004 -0.001,-0.006 m -5.584,-9.364 c -4.738,-1.467 -9.457,-3.89 -13.954,-7.451 v 0 c -0.047,-0.037 -0.093,-0.073 -0.14,-0.112 v 0 c 0.877,-1.693 1.381,-3.606 1.381,-5.643 v 0 c 0,-6.782 -5.499,-12.28 -12.28,-12.28 v 0 c -6.786,0 -12.284,5.498 -12.284,12.28 v 0 c 0,6.784 5.498,12.282 12.284,12.282 v 0 c 2.481,0 4.791,-0.743 6.724,-2.012 v 0 c -2.403,2.517 -5.9,4.109 -9.799,4.109 v 0 c -3.912,0 -7.416,-1.513 -9.822,-4.013 v 0 c -19.095,9.968 -40.172,2.504 -49.759,-9.674 v 0 C 66.232,329.676 65.716,313.426 72.512,296.724 v 0 c 5.513,-13.542 16.078,-23.146 26.713,-32.617 v 0 c 4.942,-4.397 9.862,-8.824 14.778,-13.253 v 0 c 12.342,12.226 26.666,30.855 24.615,50.047 v 0 c 0,0 -2.181,16.346 -31.076,18.369 v 0 l -16.466,0.906 c 0,0 -3.335,-0.174 -3.335,2.222 v 0 c 0,2.46 3.521,1.763 5.656,1.763 v 0 c 2.129,0 46.221,-5.21 59.215,6.115 v 0 c 12.97,11.305 17.803,33.122 18.384,35.933 v 0 c -0.899,-3.222 -4.107,-7.51 -5.584,-9.364" /></g></g></g></g><g
       id="g138"><g
         clip-path="url(#clipPath144)"
         id="g140"><g
           transform="translate(483.6674,279.1765)"
           id="g146"><path
             id="path148"
             style="fill:#00adef;fill-opacity:1;fill-rule:nonzero;stroke:none"
             d="m 0,0 -36.049,0.489 c -3.228,0.215 -5.346,0.71 -6.35,1.483 -1.01,0.775 -1.262,2.028 -0.773,3.763 0.5,1.765 1.528,3.001 3.082,3.705 1.556,0.705 4.443,1.061 8.671,1.061 l 51.483,0.001 3.769,13.302 h -54.524 c -7.641,0 -13.257,-0.35 -16.847,-1.056 -3.584,-0.707 -6.668,-1.9 -9.236,-3.583 -2.199,-1.491 -4.019,-3.364 -5.468,-5.617 -1.444,-2.248 -2.658,-5.113 -3.639,-8.582 -1.911,-6.73 -1.706,-11.369 0.621,-13.919 2.325,-2.55 7.78,-3.933 16.359,-4.149 l 34.359,-0.651 c 4.336,-0.273 7.065,-0.8 8.179,-1.59 1.118,-0.788 1.417,-2.089 0.903,-3.906 -0.507,-1.791 -1.452,-3.073 -2.83,-3.844 -1.382,-0.773 -3.424,-1.159 -6.138,-1.159 0,0 -52.272,0.005 -52.748,0.018 l -3.976,-14.022 h 52.368 c 6.289,0 11.159,0.227 14.609,0.672 3.444,0.449 6.284,1.189 8.511,2.22 3.396,1.628 6.039,3.595 7.936,5.901 1.898,2.305 3.444,5.559 4.636,9.767 2.008,7.082 1.739,12.086 -0.796,15.016 C 13.573,-1.749 8.2,-0.191 0,0" /></g><g
           transform="translate(320.0648,292.584)"
           id="g150"><path
             id="path152"
             style="fill:#00adef;fill-opacity:1;fill-rule:nonzero;stroke:none"
             d="m 0,0 c -0.748,3.16 -2.717,5.54 -5.907,7.143 -1.78,0.896 -4.075,1.537 -6.878,1.932 -2.807,0.392 -6.663,0.59 -11.562,0.59 h -55.255 l -4.294,-15.137 54.488,0.04 c 2.777,0 4.633,-0.564 5.572,-1.69 0.938,-1.126 1.057,-2.922 0.356,-5.389 -0.878,-3.095 -2.079,-5.244 -3.598,-6.451 -1.52,-1.209 -3.746,-1.81 -6.677,-1.81 h -32.413 l 2.646,9.329 h -22.069 l -11.194,-39.486 h 22.053 l 4.288,15.099 h 41.123 c 7.837,0 13.89,1.717 18.151,5.149 4.264,3.429 7.574,9.297 9.926,17.599 C 0.333,-7.519 0.748,-3.158 0,0" /></g><g
           transform="translate(386.2122,302.2493)"
           id="g154"><path
             id="path156"
             style="fill:#00adef;fill-opacity:1;fill-rule:nonzero;stroke:none"
             d="m 0,0 h -28.058 l -56.514,-60.595 h 23.997 l 42.097,46.109 7.898,-21.447 h -19.755 l -12.866,-14.566 h 36.38 l 4.101,-10.096 h 24.139 z" /></g><g
           transform="translate(288.2578,352.6897)"
           id="g158"><path
             id="path160"
             style="fill:#f68712;fill-opacity:1;fill-rule:nonzero;stroke:none"
             d="m 0,0 h -21.845 c -2.647,0 -4.513,-0.453 -5.707,-1.384 -1.209,-0.942 -2.022,-2.54 -2.488,-4.885 l -0.783,-4.143 c -0.17,-0.849 -0.253,-1.565 -0.253,-2.176 0,-2.118 0.977,-3.143 1.797,-3.63 1.035,-0.62 2.637,-0.922 4.896,-0.922 H -8.19 c 0.047,0 0.091,-10e-4 0.13,-0.002 l -1.027,-5.372 c -0.032,-0.12 -0.062,-0.193 -0.082,-0.233 -0.059,-0.012 -0.213,-0.039 -0.503,-0.039 h -22.864 -0.832 l -0.151,-0.817 -0.817,-4.41 -0.219,-1.182 h 1.202 23.485 c 2.677,0 4.527,0.434 5.655,1.328 1.138,0.905 1.932,2.518 2.429,4.933 l 1.051,5.435 c 0.143,0.896 0.213,1.566 0.213,2.024 0,2.091 -0.992,3.1 -1.825,3.578 -1.052,0.601 -2.67,0.893 -4.95,0.893 h -16.189 c -0.06,0 -0.113,10e-4 -0.16,0.004 l 0.91,4.657 c 0.022,0.096 0.046,0.165 0.065,0.212 0.089,0.016 0.249,0.034 0.512,0.034 h 21.34 0.82 L 0.164,-5.293 0.981,-1.195 1.219,0 Z" /></g><g
           transform="translate(334.7727,352.6897)"
           id="g162"><path
             id="path164"
             style="fill:#f68712;fill-opacity:1;fill-rule:nonzero;stroke:none"
             d="m 0,0 h -31.192 -0.824 l -0.158,-0.809 -0.819,-4.214 -0.232,-1.191 h 1.213 11.702 l -4.237,-21.791 -0.231,-1.19 h 1.213 5.368 0.824 l 0.157,0.809 4.307,22.172 H -0.822 0.002 L 0.16,-5.405 0.982,-1.191 1.214,0 Z" /></g><g
           transform="translate(380.862,352.6897)"
           id="g166"><path
             id="path168"
             style="fill:#f68712;fill-opacity:1;fill-rule:nonzero;stroke:none"
             d="m 0,0 h -5.364 -0.825 l -0.157,-0.809 -4.259,-21.926 c -0.02,-0.1 -0.041,-0.166 -0.056,-0.208 -0.079,-0.017 -0.228,-0.037 -0.485,-0.037 h -16.847 c -0.054,0 -0.103,0 -0.147,0.002 l 4.231,21.787 0.232,1.191 h -1.213 -5.368 -0.826 l -0.156,-0.811 -4.076,-21.19 c -0.232,-1.041 -0.347,-1.914 -0.347,-2.641 0,-1.801 0.61,-3.081 1.812,-3.804 1.047,-0.634 2.67,-0.943 4.959,-0.943 h 17.475 c 2.716,0 4.6,0.48 5.76,1.467 1.153,0.977 1.978,2.79 2.521,5.541 L 0.982,-1.191 1.213,0 Z" /></g><g
           transform="translate(416.8008,330.1783)"
           id="g170"><path
             id="path172"
             style="fill:#f68712;fill-opacity:1;fill-rule:nonzero;stroke:none"
             d="m 0,0 c -0.033,-0.123 -0.065,-0.198 -0.086,-0.238 -0.056,-0.01 -0.209,-0.036 -0.497,-0.036 h -16.756 l 3.22,16.571 H 3.007 c 0.044,0 0.084,0 0.122,-0.001 z M 10.027,20.334 C 9.585,21.062 8.919,21.592 8.05,21.904 7.327,22.163 6.643,22.332 6.015,22.406 5.394,22.476 4.68,22.511 3.89,22.511 h -23.378 -0.824 l -0.157,-0.809 -5.289,-27.195 -0.232,-1.191 h 1.213 24.08 c 2.692,0 4.548,0.476 5.674,1.456 1.103,0.961 1.917,2.774 2.49,5.543 l 2.867,14.758 c 0.133,0.666 0.229,1.529 0.292,2.631 0.03,1.057 -0.172,1.932 -0.599,2.63" /></g><g
           transform="translate(448.1049,352.6897)"
           id="g174"><path
             id="path176"
             style="fill:#f68712;fill-opacity:1;fill-rule:nonzero;stroke:none"
             d="M 0,0 H -5.366 -6.19 l -0.158,-0.809 -5.287,-27.195 -0.232,-1.191 h 1.213 5.363 0.824 l 0.158,0.809 L 0.982,-1.191 1.213,0 Z" /></g><g
           transform="translate(486.9762,329.9515)"
           id="g178"><path
             id="path180"
             style="fill:#f68712;fill-opacity:1;fill-rule:nonzero;stroke:none"
             d="M 0,0 C -0.018,-0.101 -0.038,-0.167 -0.053,-0.207 -0.121,-0.22 -0.273,-0.242 -0.544,-0.242 H -20.32 c -0.049,0 -0.093,0 -0.134,0.002 l 3.25,16.716 c 0.017,0.094 0.034,0.163 0.048,0.212 0.099,0.015 0.267,0.032 0.532,0.032 H 3.162 c 0.015,0 0.03,0 0.045,0 z M 8.932,21.985 C 7.89,22.622 6.299,22.931 4.066,22.931 h -20.394 c -2.713,0 -4.612,-0.483 -5.807,-1.479 -1.193,-0.987 -2.04,-2.809 -2.588,-5.57 L -27.666,0.743 c -0.188,-0.871 -0.286,-1.729 -0.286,-2.531 0,-1.824 0.619,-3.129 1.839,-3.877 1.08,-0.663 2.719,-0.986 5.01,-0.986 h 20.414 c 2.695,0 4.556,0.482 5.69,1.475 1.118,0.98 1.925,2.789 2.469,5.53 l 2.981,15.138 c 0.177,0.994 0.266,1.895 0.266,2.696 0,1.796 -0.601,3.074 -1.785,3.797" /></g></g></g></g></svg>